# xmcd
#
# Track frame offsets:
#	150
#	21267
#	41062
#	59287
#	78480
#	102095
#	121107
#	134270
#	154465
#	175835
#	186352
#	200207
#	214670
#	231340
#	321760
#
# Disc length: 4742 seconds
#
# Revision: 2
# Processed by: cddbd v1.5.1PL0 Copyright (c) Steve Scherf et al.
# Submitted via: audiograbber 1.83.01
#
DISCID=d812840f
DTITLE=Selena - Dreaming Of You
DYEAR=2002
DGENRE=Latin
TTITLE0=I Could Fall In Love
TTITLE1=Captive Heart
TTITLE2=I'm Getting Used To You
TTITLE3=God's Child (Baila Conmigo)
TTITLE4=Dreaming Of You
TTITLE5=Missing My Baby
TTITLE6=Amor Prohibido
TTITLE7=Wherever You Are (Donde Quiera Que Estés)
TTITLE8=Techno Cumbia
TTITLE9=El Toro Relajo
TTITLE10=Como La Flor
TTITLE11=Tú Sólo Tú
TTITLE12=Bidi Bidi Bom Bom
TTITLE13=Spoken Liners Notes By The Band And Family
TTITLE14=Data Track
EXTD=
EXTT0=
EXTT1=
EXTT2=
EXTT3=
EXTT4=
EXTT5=
EXTT6=
EXTT7=
EXTT8=
EXTT9=
EXTT10=
EXTT11=
EXTT12=
EXTT13=
EXTT14=
PLAYORDER=
